<?xml version="1.0" encoding="utf-8" standalone="no"?> 
<svg version="1.1" xmlns="http://www.w3.org/2000/svg"
width="20" height="21" viewBox="0 0 20 21">

<path style="fill:#fff;stroke:#fff;stroke-width:0;" d="M 0,21 L 20,21 L 20,10 L 0,10 z"/>

<path style="fill:#8b0000;stroke:#8b0000;stroke-width:0;" d="M 0,18.5 A 6 6 0 0 0 6,12.5 L 6,6 A 3 3 0 0 1 9,3 L 11,3 A 3 3 0 0 1 14,6 L 14,12.5 A 6 6 0 0 0 20,18.5 L 20,15.5 A 3 3 0 0 1 17,12.5 L 17,6 A 6 6 0 0 0 13,0 L 9,0 A 6 6 0 0 0 3,6 L 3,12.5 A 3 3 0 0 1 0,15.5 z"/>
	</svg>